<svg xmlns="http://www.w3.org/2000/svg" width="38" height="38" viewBox="0 0 38 38" fill="none">
  <g clip-path="url(#clip0_78_103)">
    <path d="M32.3864 0C33.8752 0 35.303 0.591435 36.3558 1.6442C37.4086 2.69696 38 4.12481 38 5.61364V32.3864C38 33.8752 37.4086 35.303 36.3558 36.3558C35.303 37.4086 33.8752 38 32.3864 38H5.61364C4.12481 38 2.69696 37.4086 1.6442 36.3558C0.591435 35.303 0 33.8752 0 32.3864V5.61364C0 4.12481 0.591435 2.69696 1.6442 1.6442C2.69696 0.591435 4.12481 0 5.61364 0H32.3864ZM32.3864 2.59091H5.61364C4.81196 2.59091 4.04312 2.90937 3.47625 3.47625C2.90937 4.04312 2.59091 4.81196 2.59091 5.61364V32.3864C2.59091 34.0549 3.94509 35.4091 5.61364 35.4091H32.3864C33.188 35.4091 33.9569 35.0906 34.5238 34.5238C35.0906 33.9569 35.4091 33.188 35.4091 32.3864V5.61364C35.4091 4.81196 35.0906 4.04312 34.5238 3.47625C33.9569 2.90937 33.188 2.59091 32.3864 2.59091ZM9.5 21.5909C10.1872 21.5909 10.8462 21.8639 11.3321 22.3498C11.8179 22.8357 12.0909 23.4947 12.0909 24.1818C12.0909 24.869 11.8179 25.528 11.3321 26.0139C10.8462 26.4998 10.1872 26.7727 9.5 26.7727C8.81285 26.7727 8.15384 26.4998 7.66795 26.0139C7.18206 25.528 6.90909 24.869 6.90909 24.1818C6.90909 23.4947 7.18206 22.8357 7.66795 22.3498C8.15384 21.8639 8.81285 21.5909 9.5 21.5909ZM19 21.5909C19.6872 21.5909 20.3462 21.8639 20.8321 22.3498C21.3179 22.8357 21.5909 23.4947 21.5909 24.1818C21.5909 24.869 21.3179 25.528 20.8321 26.0139C20.3462 26.4998 19.6872 26.7727 19 26.7727C18.3128 26.7727 17.6538 26.4998 17.1679 26.0139C16.6821 25.528 16.4091 24.869 16.4091 24.1818C16.4091 23.4947 16.6821 22.8357 17.1679 22.3498C17.6538 21.8639 18.3128 21.5909 19 21.5909ZM9.5 11.2273C9.84024 11.2273 10.1772 11.2943 10.4915 11.4245C10.8058 11.5547 11.0915 11.7455 11.3321 11.9861C11.5726 12.2267 11.7635 12.5123 11.8937 12.8267C12.0239 13.141 12.0909 13.4779 12.0909 13.8182C12.0909 14.1584 12.0239 14.4953 11.8937 14.8097C11.7635 15.124 11.5726 15.4096 11.3321 15.6502C11.0915 15.8908 10.8058 16.0817 10.4915 16.2119C10.1772 16.3421 9.84024 16.4091 9.5 16.4091C8.81285 16.4091 8.15384 16.1361 7.66795 15.6502C7.18206 15.1643 6.90909 14.5053 6.90909 13.8182C6.90909 13.131 7.18206 12.472 7.66795 11.9861C8.15384 11.5002 8.81285 11.2273 9.5 11.2273ZM19 11.2273C19.3402 11.2273 19.6772 11.2943 19.9915 11.4245C20.3058 11.5547 20.5915 11.7455 20.8321 11.9861C21.0726 12.2267 21.2635 12.5123 21.3937 12.8267C21.5239 13.141 21.5909 13.4779 21.5909 13.8182C21.5909 14.1584 21.5239 14.4953 21.3937 14.8097C21.2635 15.124 21.0726 15.4096 20.8321 15.6502C20.5915 15.8908 20.3058 16.0817 19.9915 16.2119C19.6772 16.3421 19.3402 16.4091 19 16.4091C18.3128 16.4091 17.6538 16.1361 17.1679 15.6502C16.6821 15.1643 16.4091 14.5053 16.4091 13.8182C16.4091 13.131 16.6821 12.472 17.1679 11.9861C17.6538 11.5002 18.3128 11.2273 19 11.2273ZM28.5 11.2273C28.8402 11.2273 29.1772 11.2943 29.4915 11.4245C29.8058 11.5547 30.0915 11.7455 30.332 11.9861C30.5726 12.2267 30.7635 12.5123 30.8937 12.8267C31.0239 13.141 31.0909 13.4779 31.0909 13.8182C31.0909 14.1584 31.0239 14.4953 30.8937 14.8097C30.7635 15.124 30.5726 15.4096 30.332 15.6502C30.0915 15.8908 29.8058 16.0817 29.4915 16.2119C29.1772 16.3421 28.8402 16.4091 28.5 16.4091C27.8128 16.4091 27.1538 16.1361 26.668 15.6502C26.1821 15.1643 25.9091 14.5053 25.9091 13.8182C25.9091 13.131 26.1821 12.472 26.668 11.9861C27.1538 11.5002 27.8128 11.2273 28.5 11.2273Z" fill="#EDF0FF"/>
  </g>
  <defs>
    <clipPath id="clip0_78_103">
      <rect width="38" height="38" fill="white"/>
    </clipPath>
  </defs>
</svg>