<svg width="32" height="32" viewBox="0 0 32 32" fill="none" xmlns="http://www.w3.org/2000/svg">
<rect width="31.7821" height="32" rx="4" fill="#DDB692"/>
<path d="M9.72539 4V7.76038H11.5483V4H9.72539ZM20.2338 4V7.76038H22.054V4H20.2338ZM6 5.80736V11.0719H25.7821V5.80736H23.3574V9.1704H18.9305V5.80736H12.849V9.1704H8.42476V5.80736H6ZM6 12.4542V28H25.7821V12.4541L6 12.4542ZM13.7709 16.0461C14.7779 16.0568 15.7308 16.5809 16.1097 17.5562C16.2879 18.1387 16.3827 18.7598 16.1609 19.3021C15.8832 19.9278 15.3202 20.2535 14.7679 20.4634C15.8045 20.7564 16.4867 21.4626 16.4929 22.6096C16.4762 23.3964 16.1363 24.0933 15.6231 24.5488C15.0774 25.0162 14.4175 25.2772 13.7709 25.282C11.9474 25.282 11.0352 24.3913 11.0352 22.6096H12.645C12.6792 23.3598 13.0066 23.9303 13.6804 23.9404C14.5369 23.8772 14.8761 23.2675 14.8831 22.4868C14.8827 22.0152 14.7238 21.532 14.3453 21.3502C13.857 21.1304 13.3119 21.1565 12.8361 21.156V19.7995C13.6139 19.8171 14.6822 19.6684 14.6901 18.664C14.6599 17.9252 14.3808 17.398 13.7188 17.3887C13.0136 17.4348 12.6266 17.8691 12.6194 18.555H11.0352C11.0696 16.8255 12.381 16.0538 13.7709 16.0461ZM19.3274 16.2135H20.7461V25.1175H19.2113V17.9575C18.6233 18.5021 17.9725 18.89 17.2567 19.1208V17.5978C18.0918 17.247 18.7821 16.7859 19.3274 16.2135Z" fill="white"/>
</svg>
