<svg width="32" height="34" viewBox="0 0 32 34" fill="none" xmlns="http://www.w3.org/2000/svg">
<rect y="0.900146" width="32" height="32.1997" rx="4" fill="#5EDCB3"/>
<path d="M27.2931 8.81257C25.8385 8.15161 24.3828 7.90015 22.9278 7.90015C18.309 7.89974 13.6906 10.4327 9.0718 10.4327C7.91344 10.4327 6.75583 10.2734 5.59747 9.8753C5.46735 9.83062 5.33685 9.80949 5.20936 9.80949C4.56399 9.80949 4 10.3506 4 11.1018V23.9902C4 24.5033 4.27112 24.9896 4.70649 25.187C6.16109 25.8484 7.61682 26.0999 9.0718 26.0999C13.6906 26.0999 18.3094 23.5669 22.9282 23.5669C24.0866 23.5669 25.2442 23.7262 26.4025 24.1243C26.5326 24.169 26.6631 24.1901 26.7906 24.1901C27.436 24.1901 28 23.649 28 22.8978V10.0098C27.9996 9.49628 27.7285 9.01041 27.2931 8.81257ZM5.79997 11.9715C6.55446 12.1763 7.34195 12.279 8.15194 12.3343C7.93144 13.5282 6.96245 14.4281 5.79997 14.4281V11.9715ZM5.79997 23.5495V21.6084C7.08883 21.6084 8.13169 22.7163 8.18906 24.1028C7.3442 24.0292 6.55446 23.8464 5.79997 23.5495ZM15.9998 20.8999C14.3427 20.8999 12.9999 19.1535 12.9999 17C12.9999 14.8461 14.3431 13.1001 15.9998 13.1001C17.6565 13.1001 18.9998 14.8461 18.9998 17C18.9998 19.1543 17.6562 20.8999 15.9998 20.8999ZM26.1997 22.0285C25.5427 21.8501 24.8605 21.7502 24.1627 21.6856C24.3828 20.6261 25.1939 19.8218 26.1997 19.6836V22.0285ZM26.1997 12.4367C25.0413 12.2778 24.1424 11.2301 24.1068 9.93624C24.8395 10.0244 25.5352 10.1893 26.1997 10.4505V12.4367Z" fill="white"/>
</svg>
