<svg width="31" height="32" viewBox="0 0 31 32" fill="none" xmlns="http://www.w3.org/2000/svg">
<rect width="30.5995" height="32" rx="4" fill="#84AAFF"/>
<path d="M21.7737 15.9761L26.2586 11.2347C26.6981 10.7678 26.6981 9.98952 26.2586 9.54652L21.368 4.35021C20.951 3.88326 20.2186 3.88326 19.7791 4.35021L15.3167 9.11549L10.8092 4.35021C10.5979 4.1275 10.3123 4.00253 10.0147 4.00253C9.71709 4.00253 9.43153 4.1275 9.22026 4.35021L4.32961 9.54652C3.89013 9.98952 3.89013 10.7678 4.32961 11.2347L8.81458 15.9761L4.32961 20.7653C3.89013 21.2322 3.89013 21.9626 4.32961 22.4535L9.22026 27.6498C9.68227 28.1167 10.3697 28.1167 10.8092 27.6498L15.3167 22.8845L19.7791 27.6498C20.0045 27.8892 20.2862 27.997 20.5792 27.997C20.8722 27.997 21.1539 27.8773 21.3793 27.6498L26.2699 22.4535C26.7094 21.9626 26.7094 21.2322 26.2699 20.7653L21.7737 15.9761ZM15.3167 12.3841C15.6155 12.3841 15.9021 12.5103 16.1135 12.7348C16.3248 12.9594 16.4435 13.2639 16.4435 13.5814C16.4435 13.899 16.3248 14.2035 16.1135 14.4281C15.9021 14.6526 15.6155 14.7787 15.3167 14.7787C15.0178 14.7787 14.7312 14.6526 14.5198 14.4281C14.3085 14.2035 14.1898 13.899 14.1898 13.5814C14.1898 13.2639 14.3085 12.9594 14.5198 12.7348C14.7312 12.5103 15.0178 12.3841 15.3167 12.3841ZM10.0091 14.7309L5.91851 10.3966L10.0091 6.05039L14.0884 10.3846L10.0091 14.7309ZM13.0629 17.1734C12.764 17.1734 12.4774 17.0472 12.2661 16.8227C12.0548 16.5981 11.936 16.2936 11.936 15.9761C11.936 15.6585 12.0548 15.354 12.2661 15.1294C12.4774 14.9049 12.764 14.7787 13.0629 14.7787C13.3618 14.7787 13.6484 14.9049 13.8597 15.1294C14.0711 15.354 14.1898 15.6585 14.1898 15.9761C14.1898 16.2936 14.0711 16.5981 13.8597 16.8227C13.6484 17.0472 13.3618 17.1734 13.0629 17.1734ZM15.3167 19.568C15.0178 19.568 14.7312 19.4418 14.5198 19.2173C14.3085 18.9928 14.1898 18.6882 14.1898 18.3707C14.1898 18.0531 14.3085 17.7486 14.5198 17.524C14.7312 17.2995 15.0178 17.1734 15.3167 17.1734C15.6155 17.1734 15.9021 17.2995 16.1135 17.524C16.3248 17.7486 16.4435 18.0531 16.4435 18.3707C16.4435 18.6882 16.3248 18.9928 16.1135 19.2173C15.9021 19.4418 15.6155 19.568 15.3167 19.568ZM17.5704 14.7787C17.8693 14.7787 18.1559 14.9049 18.3672 15.1294C18.5786 15.354 18.6973 15.6585 18.6973 15.9761C18.6973 16.2936 18.5786 16.5981 18.3672 16.8227C18.1559 17.0472 17.8693 17.1734 17.5704 17.1734C17.2715 17.1734 16.9849 17.0472 16.7736 16.8227C16.5623 16.5981 16.4435 16.2936 16.4435 15.9761C16.4435 15.6585 16.5623 15.354 16.7736 15.1294C16.9849 14.9049 17.2715 14.7787 17.5704 14.7787ZM20.5679 25.9616L16.4773 21.6273L20.5679 17.2811L24.6472 21.6154L20.5679 25.9616Z" fill="white"/>
</svg>
