<svg width="32" height="32" viewBox="0 0 32 32" fill="none" xmlns="http://www.w3.org/2000/svg">
<rect width="32" height="32" rx="4" fill="#FF8D55"/>
<path d="M24.2061 5.03228C23.3433 4.52646 22.3907 4.19811 21.4028 4.06599C20.4149 3.93387 19.4111 4.00056 18.4486 4.26226C17.4861 4.52395 16.5838 4.97552 15.7932 5.59119C15.0027 6.20685 14.3394 6.97455 13.8411 7.85044L13.5559 8.35263C13.4594 8.52225 13.4333 8.72383 13.4832 8.91301C13.5332 9.1022 13.6551 9.2635 13.8222 9.36144L19.4012 12.6316L16.344 18.0626C16.1103 18.0408 15.8758 18.0299 15.6411 18.0301C12.7498 18.0301 10.2353 19.6917 8.60698 22.0963L8.66082 22.0934C9.13418 22.0741 9.60087 22.2117 9.99043 22.4853C10.38 22.759 10.6712 23.1538 10.8203 23.6103C11.3266 25.1641 13.1223 25.0548 13.5763 23.7137C13.7238 23.2768 14.0021 22.8976 14.3723 22.6291C14.7425 22.3607 15.1862 22.2163 15.6411 22.2163C16.0961 22.2163 16.5398 22.3607 16.91 22.6291C17.2802 22.8976 17.5585 23.2768 17.706 23.7137C18.1585 25.0548 19.9556 25.1641 20.462 23.6103C20.6139 23.1452 20.9134 22.7443 21.3136 22.4704C21.7138 22.1965 22.1921 22.0649 22.6739 22.0963C21.4777 20.3283 19.8029 18.9636 17.8501 18.3639L20.6614 13.3701L25.7035 16.3241C25.8706 16.4221 26.0692 16.4486 26.2555 16.3979C26.4419 16.3472 26.6008 16.2234 26.6973 16.0538L26.984 15.5516C27.9898 13.7828 28.2622 11.6808 27.7413 9.70803C27.2203 7.73529 25.9487 6.05339 24.2061 5.03228ZM9.43932 24.0741C9.38946 23.9221 9.29229 23.7908 9.16245 23.6998C9.03262 23.6088 8.87716 23.5631 8.71951 23.5696C8.56186 23.5761 8.41057 23.6344 8.28843 23.7358C8.1663 23.8372 8.07995 23.9761 8.04239 24.1317C7.79501 25.1567 7.32646 25.7195 6.79242 26.0459C6.23364 26.3886 5.52208 26.5215 4.72757 26.5215C4.53461 26.5215 4.34955 26.5993 4.2131 26.7378C4.07665 26.8763 4 27.0641 4 27.26C4 27.4559 4.07665 27.6437 4.2131 27.7822C4.34955 27.9207 4.53461 27.9985 4.72757 27.9985C5.65595 27.9985 6.66728 27.8479 7.54473 27.3117C8.06778 26.991 8.50858 26.5491 8.83108 26.0223C10.5671 28.2688 13.9561 28.2585 15.6411 25.9986C17.3538 28.2939 20.8215 28.2688 22.5312 25.9144C22.9955 26.5562 23.601 27.0789 24.2996 27.441C24.9981 27.8031 25.7704 27.9945 26.5547 28C26.7477 28 26.9327 27.9222 27.0692 27.7837C27.2056 27.6452 27.2823 27.4574 27.2823 27.2615C27.2823 27.0656 27.2056 26.8778 27.0692 26.7393C26.9327 26.6008 26.7477 26.523 26.5547 26.523C25.1243 26.523 23.6983 25.5777 23.2268 24.0829C23.1797 23.9349 23.0878 23.8058 22.9642 23.7139C22.8405 23.622 22.6915 23.5721 22.5382 23.5713C22.385 23.5705 22.2354 23.6188 22.1109 23.7093C21.9863 23.7999 21.893 23.928 21.8444 24.0755C20.9088 26.9395 17.2462 26.9026 16.3294 24.1937C16.2803 24.0481 16.1875 23.9217 16.0641 23.8322C15.9407 23.7427 15.7928 23.6946 15.6411 23.6946C15.4895 23.6946 15.3416 23.7427 15.2182 23.8322C15.0948 23.9217 15.002 24.0481 14.9529 24.1937C14.0361 26.9026 10.3735 26.9395 9.43787 24.0755L9.43932 24.0741Z" fill="white"/>
</svg>
