<svg xmlns="http://www.w3.org/2000/svg" width="16" height="18" viewBox="0 0 16 18" fill="none">
  <path d="M1.23077 16.7143H14.7692V6.42857H1.23077V16.7143ZM4.92308 4.5V1.60714C4.92308 1.51339 4.89423 1.43638 4.83654 1.37612C4.77885 1.31585 4.70513 1.28571 4.61538 1.28571H4C3.91026 1.28571 3.83654 1.31585 3.77885 1.37612C3.72115 1.43638 3.69231 1.51339 3.69231 1.60714V4.5C3.69231 4.59375 3.72115 4.67076 3.77885 4.73103C3.83654 4.7913 3.91026 4.82143 4 4.82143H4.61538C4.70513 4.82143 4.77885 4.7913 4.83654 4.73103C4.89423 4.67076 4.92308 4.59375 4.92308 4.5ZM12.3077 4.5V1.60714C12.3077 1.51339 12.2788 1.43638 12.2212 1.37612C12.1635 1.31585 12.0897 1.28571 12 1.28571H11.3846C11.2949 1.28571 11.2212 1.31585 11.1635 1.37612C11.1058 1.43638 11.0769 1.51339 11.0769 1.60714V4.5C11.0769 4.59375 11.1058 4.67076 11.1635 4.73103C11.2212 4.7913 11.2949 4.82143 11.3846 4.82143H12C12.0897 4.82143 12.1635 4.7913 12.2212 4.73103C12.2788 4.67076 12.3077 4.59375 12.3077 4.5ZM16 3.85714V16.7143C16 17.0625 15.8782 17.3638 15.6346 17.6183C15.391 17.8728 15.1026 18 14.7692 18H1.23077C0.897436 18 0.608974 17.8728 0.365385 17.6183C0.121795 17.3638 0 17.0625 0 16.7143V3.85714C0 3.50893 0.121795 3.20759 0.365385 2.95312C0.608974 2.69866 0.897436 2.57143 1.23077 2.57143H2.46154V1.60714C2.46154 1.16518 2.61218 0.78683 2.91346 0.472098C3.21474 0.157366 3.57692 0 4 0H4.61538C5.03846 0 5.40064 0.157366 5.70192 0.472098C6.00321 0.78683 6.15385 1.16518 6.15385 1.60714V2.57143H9.84615V1.60714C9.84615 1.16518 9.99679 0.78683 10.2981 0.472098C10.5994 0.157366 10.9615 0 11.3846 0H12C12.4231 0 12.7853 0.157366 13.0865 0.472098C13.3878 0.78683 13.5385 1.16518 13.5385 1.60714V2.57143H14.7692C15.1026 2.57143 15.391 2.69866 15.6346 2.95312C15.8782 3.20759 16 3.50893 16 3.85714ZM3.29691 8.75857C3.37405 8.67655 3.47866 8.63048 3.58773 8.63048C3.69681 8.63048 3.80142 8.67655 3.87856 8.75857L5.64449 10.6368L7.41042 8.75857C7.44836 8.71678 7.49375 8.68345 7.54394 8.66053C7.59413 8.6376 7.6481 8.62553 7.70272 8.62502C7.75734 8.62452 7.81151 8.63559 7.86206 8.65759C7.91261 8.67958 7.95854 8.71207 7.99717 8.75315C8.03579 8.79422 8.06633 8.84307 8.08702 8.89684C8.1077 8.95061 8.11811 9.00822 8.11763 9.06631C8.11716 9.1244 8.10581 9.18181 8.08425 9.23518C8.06269 9.28856 8.03135 9.33684 7.99207 9.37719L6.22614 11.2554L7.99207 13.1336C8.067 13.2161 8.10846 13.3266 8.10752 13.4413C8.10658 13.556 8.06332 13.6657 7.98706 13.7469C7.91079 13.828 7.80762 13.874 7.69976 13.875C7.59191 13.876 7.488 13.8319 7.41042 13.7522L5.64449 11.874L3.87856 13.7522C3.80098 13.8319 3.69707 13.876 3.58921 13.875C3.48136 13.874 3.37819 13.828 3.30192 13.7469C3.22565 13.6657 3.18239 13.556 3.18145 13.4413C3.18052 13.3266 3.22198 13.2161 3.29691 13.1336L5.06284 11.2554L3.29691 9.37719C3.21979 9.29515 3.17647 9.18389 3.17647 9.06788C3.17647 8.95187 3.21979 8.84061 3.29691 8.75857Z" fill="#77777A"/>
  <path d="M1.23077 16.7143H14.7692V6.42857H1.23077V16.7143ZM4.92308 4.5V1.60714C4.92308 1.51339 4.89423 1.43638 4.83654 1.37612C4.77885 1.31585 4.70513 1.28571 4.61538 1.28571H4C3.91026 1.28571 3.83654 1.31585 3.77885 1.37612C3.72115 1.43638 3.69231 1.51339 3.69231 1.60714V4.5C3.69231 4.59375 3.72115 4.67076 3.77885 4.73103C3.83654 4.7913 3.91026 4.82143 4 4.82143H4.61538C4.70513 4.82143 4.77885 4.7913 4.83654 4.73103C4.89423 4.67076 4.92308 4.59375 4.92308 4.5ZM12.3077 4.5V1.60714C12.3077 1.51339 12.2788 1.43638 12.2212 1.37612C12.1635 1.31585 12.0897 1.28571 12 1.28571H11.3846C11.2949 1.28571 11.2212 1.31585 11.1635 1.37612C11.1058 1.43638 11.0769 1.51339 11.0769 1.60714V4.5C11.0769 4.59375 11.1058 4.67076 11.1635 4.73103C11.2212 4.7913 11.2949 4.82143 11.3846 4.82143H12C12.0897 4.82143 12.1635 4.7913 12.2212 4.73103C12.2788 4.67076 12.3077 4.59375 12.3077 4.5ZM16 3.85714V16.7143C16 17.0625 15.8782 17.3638 15.6346 17.6183C15.391 17.8728 15.1026 18 14.7692 18H1.23077C0.897436 18 0.608974 17.8728 0.365385 17.6183C0.121795 17.3638 0 17.0625 0 16.7143V3.85714C0 3.50893 0.121795 3.20759 0.365385 2.95312C0.608974 2.69866 0.897436 2.57143 1.23077 2.57143H2.46154V1.60714C2.46154 1.16518 2.61218 0.78683 2.91346 0.472098C3.21474 0.157366 3.57692 0 4 0H4.61538C5.03846 0 5.40064 0.157366 5.70192 0.472098C6.00321 0.78683 6.15385 1.16518 6.15385 1.60714V2.57143H9.84615V1.60714C9.84615 1.16518 9.99679 0.78683 10.2981 0.472098C10.5994 0.157366 10.9615 0 11.3846 0H12C12.4231 0 12.7853 0.157366 13.0865 0.472098C13.3878 0.78683 13.5385 1.16518 13.5385 1.60714V2.57143H14.7692C15.1026 2.57143 15.391 2.69866 15.6346 2.95312C15.8782 3.20759 16 3.50893 16 3.85714ZM3.29691 8.75857C3.37405 8.67655 3.47866 8.63048 3.58773 8.63048C3.69681 8.63048 3.80142 8.67655 3.87856 8.75857L5.64449 10.6368L7.41042 8.75857C7.44836 8.71678 7.49375 8.68345 7.54394 8.66053C7.59413 8.6376 7.6481 8.62553 7.70272 8.62502C7.75734 8.62452 7.81151 8.63559 7.86206 8.65759C7.91261 8.67958 7.95854 8.71207 7.99717 8.75315C8.03579 8.79422 8.06633 8.84307 8.08702 8.89684C8.1077 8.95061 8.11811 9.00822 8.11763 9.06631C8.11716 9.1244 8.10581 9.18181 8.08425 9.23518C8.06269 9.28856 8.03135 9.33684 7.99207 9.37719L6.22614 11.2554L7.99207 13.1336C8.067 13.2161 8.10846 13.3266 8.10752 13.4413C8.10658 13.556 8.06332 13.6657 7.98706 13.7469C7.91079 13.828 7.80762 13.874 7.69976 13.875C7.59191 13.876 7.488 13.8319 7.41042 13.7522L5.64449 11.874L3.87856 13.7522C3.80098 13.8319 3.69707 13.876 3.58921 13.875C3.48136 13.874 3.37819 13.828 3.30192 13.7469C3.22565 13.6657 3.18239 13.556 3.18145 13.4413C3.18052 13.3266 3.22198 13.2161 3.29691 13.1336L5.06284 11.2554L3.29691 9.37719C3.21979 9.29515 3.17647 9.18389 3.17647 9.06788C3.17647 8.95187 3.21979 8.84061 3.29691 8.75857Z" stroke="blue"/>
</svg>