<svg width="20" height="24" viewBox="0 0 20 24" fill="none" xmlns="http://www.w3.org/2000/svg">
<path id="Vector" d="M9.64783 0C11.6398 0 13.2478 1.608 13.2478 3.6C13.2478 5.592 11.6398 7.2 9.64783 7.2C7.65583 7.2 6.04783 5.592 6.04783 3.6C6.04783 1.608 7.65583 0 9.64783 0ZM19.2478 19.2L16.8478 12.672C16.4278 11.484 16.0558 10.452 14.4478 9.6C12.8038 8.76 11.6038 8.4 9.64783 8.4C7.71583 8.4 6.51583 8.76 4.84783 9.6C3.26383 10.452 2.89183 11.484 2.44783 12.672L0.0478329 19.2C-0.228167 20.556 2.90383 22.128 5.00383 23.028C6.45583 23.664 8.01583 24 9.64783 24C11.3038 24 12.8518 23.664 14.3158 23.028C16.4158 22.128 19.5478 20.556 19.2478 19.2ZM13.7518 18.6L9.64783 22.8L5.54383 18.6C5.11183 18.144 4.84783 17.532 4.84783 16.86C4.84783 15.504 5.92783 14.4 7.24783 14.4C7.90783 14.4 8.51983 14.676 8.95183 15.132L9.64783 15.84L10.3438 15.12C10.7758 14.676 11.3878 14.4 12.0478 14.4C13.3798 14.4 14.4478 15.504 14.4478 16.86C14.4478 17.532 14.1838 18.156 13.7518 18.6Z" fill="#DE7BD4"/>
</svg>
