<svg xmlns="http://www.w3.org/2000/svg" width="21" height="24" viewBox="0 0 21 24" fill="none">
  <g clip-path="url(#clip0_78_116)">
    <path d="M10.3222 24C11.6761 24 12.7838 22.8923 12.7838 21.5385H7.86069C7.86069 22.8923 8.96838 24 10.3222 24ZM17.7068 16.6154V10.4615C17.7068 6.68308 15.7007 3.52 12.1684 2.68308V1.84615C12.1684 0.824615 11.3438 0 10.3222 0C9.30069 0 8.47607 0.824615 8.47607 1.84615V2.68308C4.95607 3.52 2.93761 6.67077 2.93761 10.4615V16.6154L0.476074 19.0769V20.3077H20.1684V19.0769L17.7068 16.6154ZM15.2453 17.8462H5.39915V10.4615C5.39915 7.40923 7.25761 4.92308 10.3222 4.92308C13.3868 4.92308 15.2453 7.40923 15.2453 10.4615V17.8462Z" fill="white"/>
  </g>
  <defs>
    <clipPath id="clip0_78_116">
      <rect width="19.6923" height="24" fill="white" transform="translate(0.476074)"/>
    </clipPath>
  </defs>
</svg>