<svg xmlns="http://www.w3.org/2000/svg" width="16" height="16" viewBox="0 0 16 16" fill="none">
  <path d="M14.2034 3.75014C14.2034 3.17066 13.8587 2.64252 13.3305 2.40779L8.19587 0.126533C7.81444 -0.0421777 7.38166 -0.0421777 7.00756 0.126533L1.87289 2.40779C1.34476 2.64252 1 3.17066 1 3.75014V7.19771C1 11.2688 3.81673 15.0758 7.60172 16C9.28883 15.5892 10.7779 14.6063 11.9148 13.2786L9.62625 10.99C8.9211 11.4561 8.07647 11.664 7.23556 11.5784C6.39465 11.4928 5.6092 11.1191 5.01238 10.5206C4.32534 9.83251 3.93946 8.89991 3.93946 7.92756C3.93946 6.95522 4.32534 6.02262 5.01238 5.33456C5.70044 4.64752 6.63304 4.26164 7.60539 4.26164C8.57773 4.26164 9.51033 4.64752 10.1984 5.33456C10.7955 5.93224 11.1682 6.71753 11.2537 7.558C11.3392 8.39847 11.1323 9.24273 10.6679 9.94842L12.7951 12.0756C13.6826 10.6379 14.2034 8.9435 14.2034 7.19771V3.75014Z" fill="#77777A"/>
  <path d="M7.60194 10.1318C8.81728 10.1318 9.80251 9.14657 9.80251 7.93122C9.80251 6.71588 8.81728 5.73065 7.60194 5.73065C6.3866 5.73065 5.40137 6.71588 5.40137 7.93122C5.40137 9.14657 6.3866 10.1318 7.60194 10.1318Z" fill="#77777A"/>
</svg>