<svg xmlns="http://www.w3.org/2000/svg" width="16" height="16" viewBox="0 0 16 16" fill="none">
  <path d="M7.86279 1.6842C7.56807 1.6842 7.27623 1.74225 7.00394 1.85504C6.73166 1.96782 6.48425 2.13313 6.27585 2.34153C6.06745 2.54993 5.90214 2.79734 5.78936 3.06963C5.67657 3.34191 5.61852 3.63375 5.61852 3.92847C5.61852 4.22319 5.67657 4.51502 5.78936 4.78731C5.90214 5.0596 6.06745 5.307 6.27585 5.5154C6.48425 5.7238 6.73166 5.88911 7.00394 6.0019C7.27623 6.11468 7.56807 6.17273 7.86279 6.17273C8.458 6.17273 9.02884 5.93628 9.44972 5.5154C9.8706 5.09452 10.107 4.52368 10.107 3.92847C10.107 3.33325 9.8706 2.76241 9.44972 2.34153C9.02884 1.92065 8.458 1.6842 7.86279 1.6842ZM12.9174 2.80521C12.4706 2.80521 12.042 2.98273 11.726 3.2987C11.4101 3.61468 11.2326 4.04324 11.2326 4.4901C11.2326 4.93695 11.4101 5.36551 11.726 5.68149C12.042 5.99746 12.4706 6.17498 12.9174 6.17498C13.3643 6.17498 13.7928 5.99746 14.1088 5.68149C14.4248 5.36551 14.6023 4.93695 14.6023 4.4901C14.6023 4.04324 14.4248 3.61468 14.1088 3.2987C13.7928 2.98273 13.3643 2.80521 12.9174 2.80521ZM2.80814 2.80521C2.36128 2.80521 1.93272 2.98273 1.61675 3.2987C1.30077 3.61468 1.12326 4.04324 1.12326 4.4901C1.12326 4.93695 1.30077 5.36551 1.61675 5.68149C1.93272 5.99746 2.36128 6.17498 2.80814 6.17498C3.255 6.17498 3.68355 5.99746 3.99953 5.68149C4.31551 5.36551 4.49302 4.93695 4.49302 4.4901C4.49302 4.04324 4.31551 3.61468 3.99953 3.2987C3.68355 2.98273 3.255 2.80521 2.80814 2.80521ZM4.49302 8.41363C4.4951 8.11708 4.61436 7.8334 4.82478 7.62444C5.03521 7.41549 5.31973 7.29823 5.61628 7.29823H10.1093C10.4072 7.29823 10.6929 7.41658 10.9036 7.62723C11.1142 7.83788 11.2326 8.12358 11.2326 8.42149V11.7913C11.2325 12.1448 11.1771 12.4961 11.0686 12.8325C10.8198 13.5949 10.3075 14.2436 9.6235 14.6622C8.93952 15.0808 8.12872 15.2418 7.33668 15.1164C6.54465 14.991 5.82327 14.5873 5.30208 13.9779C4.78089 13.3684 4.49403 12.5932 4.49302 11.7913V8.41363ZM3.36977 8.42149C3.36977 8.0115 3.47872 7.62847 3.6708 7.29823H1.12326C0.825349 7.29823 0.539645 7.41658 0.328994 7.62723C0.118343 7.83788 1.55473e-07 8.12358 1.55473e-07 8.42149V11.2296C-0.000152816 11.6894 0.112579 12.1421 0.328297 12.5481C0.544015 12.9541 0.856119 13.301 1.2372 13.5582C1.61828 13.8154 2.05669 13.9751 2.51391 14.0232C2.97113 14.0714 3.43319 14.0066 3.8595 13.8345C3.53621 13.2016 3.36833 12.5008 3.36977 11.7901V8.42149ZM12.3558 8.42149V11.7913C12.3558 12.527 12.1795 13.2212 11.8661 13.8345C12.2924 14.0066 12.7544 14.0714 13.2117 14.0232C13.6689 13.9751 14.1073 13.8154 14.4884 13.5582C14.8695 13.301 15.1816 12.9541 15.3973 12.5481C15.613 12.1421 15.7257 11.6894 15.7256 11.2296V8.42149C15.7256 8.12358 15.6072 7.83788 15.3966 7.62723C15.1859 7.41658 14.9002 7.29823 14.6023 7.29823H12.0548C12.2457 7.62847 12.3558 8.0115 12.3558 8.42149Z" fill="#77777A"/>
</svg>