<svg xmlns="http://www.w3.org/2000/svg" width="5" height="24" viewBox="0 0 5 24" fill="none">
  <g clip-path="url(#clip0_78_118)">
    <path d="M2.56846 4.8C3.89394 4.8 4.96846 3.72548 4.96846 2.4C4.96846 1.07452 3.89394 0 2.56846 0C1.24297 0 0.168457 1.07452 0.168457 2.4C0.168457 3.72548 1.24297 4.8 2.56846 4.8Z" fill="white"/>
    <path d="M2.56846 14.4C3.89394 14.4 4.96846 13.3255 4.96846 12C4.96846 10.6745 3.89394 9.60001 2.56846 9.60001C1.24297 9.60001 0.168457 10.6745 0.168457 12C0.168457 13.3255 1.24297 14.4 2.56846 14.4Z" fill="white"/>
    <path d="M2.56846 24C3.89394 24 4.96846 22.9255 4.96846 21.6C4.96846 20.2745 3.89394 19.2 2.56846 19.2C1.24297 19.2 0.168457 20.2745 0.168457 21.6C0.168457 22.9255 1.24297 24 2.56846 24Z" fill="white"/>
  </g>
  <defs>
    <clipPath id="clip0_78_118">
      <rect width="4.8" height="24" fill="white" transform="translate(0.168457)"/>
    </clipPath>
  </defs>
</svg>